<svg width="100" height="100" viewBox="0 0 100 100" fill="none" xmlns="http://www.w3.org/2000/svg">
<path fill-rule="evenodd" clip-rule="evenodd" d="M52.2287 14.6142C69.9581 15.7693 84.1235 29.9921 85.1882 47.746L83.0224 47.4697C82.4579 39.6502 79.1865 32.5809 74.1406 27.194L72.8136 25.8551C67.4423 20.733 60.3568 17.3926 52.5053 16.7823L52.2287 14.6142ZM47.7727 14.6011C29.936 15.6572 15.657 29.9361 14.6008 47.7728L16.7663 47.4966C17.3299 39.6002 20.6539 32.4673 25.7785 27.0576L27.0573 25.7788C32.4671 20.6541 39.6 17.3301 47.4965 16.7666L47.7727 14.6011ZM47.7459 85.1885C29.9919 84.1238 15.7689 69.9583 14.6139 52.2288L16.782 52.5054C17.3923 60.3569 20.7327 67.4425 25.8548 72.8139L27.1938 74.1409C32.5806 79.1868 39.6501 82.4582 47.4696 83.0226L47.7459 85.1885ZM19.9423 52.9085C20.593 59.4566 23.3421 65.3873 27.5076 70.0186L28.2716 68.7265C24.5397 64.4447 22.0588 59.0441 21.3984 53.0943L19.9423 52.9085ZM21.3757 46.9086L19.922 47.094C20.5305 40.5014 23.2648 34.5247 27.4331 29.8558L28.198 31.1494C24.4631 35.4686 21.9961 40.9145 21.3757 46.9086ZM47.0939 19.9222C40.5012 20.5306 34.5245 23.2649 29.8555 27.4334L31.1492 28.1983C35.4683 24.4633 40.9143 21.9962 46.9085 21.3758L47.0939 19.9222ZM52.9084 19.9424L53.0942 21.3985C59.044 22.059 64.4446 24.5399 68.7264 28.2718L70.0185 27.5078C65.3872 23.3423 59.4565 20.5932 52.9084 19.9424ZM83.0065 52.5323L85.1749 52.2557C84.0119 69.9024 69.9023 84.0121 52.2556 85.1752L52.5322 83.0067C60.3069 82.3961 67.3292 79.1084 72.6777 74.065L74.0647 72.6779C79.1081 67.3294 82.3959 60.3071 83.0065 52.5323ZM72.4832 29.9971C76.5753 34.6387 79.2591 40.5514 79.8663 47.0671L78.4124 46.8816C77.7943 40.9646 75.3767 35.5829 71.7166 31.2936L72.4832 29.9971ZM78.3895 53.1213L79.8459 52.9355C79.1969 59.4068 76.4984 65.2738 72.409 69.8778L71.6434 68.5831C75.3005 64.3309 77.732 58.9942 78.3895 53.1213ZM52.9354 79.846C59.4066 79.1971 65.2736 76.4986 69.8776 72.4093L68.5828 71.6437C64.3306 75.3007 58.994 77.7321 53.1212 78.3896L52.9354 79.846ZM31.2934 71.7168C35.5828 75.3769 40.9645 77.7945 46.8815 78.4125L47.067 79.8665C40.5513 79.2593 34.6386 76.5755 29.997 72.4834L31.2934 71.7168Z" fill="#93CBFF"/>
<path fill-rule="evenodd" clip-rule="evenodd" d="M63.1227 55.1602L56.8283 55.9632C56.3764 56.0208 56.0206 56.3767 55.9629 56.8286L55.1599 63.123L71.2913 72.6614C72.1815 73.1877 73.1875 72.1818 72.6611 71.2916L63.1227 55.1602ZM44.8399 63.123L44.0369 56.8286C43.9793 56.3767 43.6234 56.0208 43.1715 55.9632L36.8771 55.1602L27.3387 71.2916C26.8124 72.1818 27.8183 73.1877 28.7085 72.6614L44.8399 63.123ZM63.1227 44.8401L72.6611 28.7088C73.1875 27.8186 72.1815 26.8127 71.2913 27.339L55.16 36.8774L55.9629 43.1717C56.0206 43.6237 56.3764 43.9795 56.8283 44.0372L63.1227 44.8401ZM44.8399 36.8774L28.7085 27.339C27.8183 26.8127 26.8124 27.8186 27.3387 28.7088L36.8771 44.8401L43.1715 44.0372C43.6234 43.9795 43.9793 43.6237 44.0369 43.1717L44.8399 36.8774Z" fill="#FFBD59"/>
<path d="M92.2242 49.008C93.3888 49.1566 93.3888 50.8434 92.2242 50.992L56.4244 55.5589C55.9724 55.6166 55.6166 55.9724 55.5589 56.4244L50.992 92.2242C50.8434 93.3888 49.1566 93.3888 49.008 92.2242L44.4411 56.4244C44.3834 55.9724 44.0276 55.6166 43.5756 55.5589L7.77582 50.992C6.61121 50.8434 6.61121 49.1566 7.77582 49.008L43.5756 44.4411C44.0276 44.3834 44.3834 44.0276 44.4411 43.5756L49.008 7.77582C49.1566 6.61121 50.8434 6.61121 50.992 7.77582L55.5589 43.5756C55.6166 44.0276 55.9724 44.3834 56.4244 44.4411L92.2242 49.008Z" fill="#93CBFF"/>
</svg>
